{
    "asset" : {
        "generator" : "Khronos glTF Blender I/O v1.7.33",
        "version" : "2.0"
    },
    "extensionsUsed" : [
        "KHR_materials_unlit"
    ],
    "scene" : 0,
    "scenes" : [
        {
            "name" : "Scene",
            "nodes" : [
                4
            ]
        }
    ],
    "nodes" : [
        {
            "mesh" : 0,
            "name" : "Object_4"
        },
        {
            "children" : [
                0
            ],
            "name" : "obj11_0"
        },
        {
            "children" : [
                1
            ],
            "name" : "GLTF_SceneRootNode",
            "rotation" : [
                0.7071068286895752,
                0,
                0,
                0.7071068286895752
            ]
        },
        {
            "children" : [
                2
            ],
            "name" : "root"
        },
        {
            "children" : [
                3
            ],
            "name" : "Sketchfab_model",
            "rotation" : [
                -0.7071068286895752,
                0,
                0,
                0.7071068286895752
            ],
            "translation" : [
                0,
                0,
                12.514557838439941
            ]
        }
    ],
    "materials" : [
        {
            "extensions" : {
                "KHR_materials_unlit" : {}
            },
            "name" : "mat1",
            "pbrMetallicRoughness" : {
                "baseColorTexture" : {
                    "index" : 0
                },
                "metallicFactor" : 0,
                "roughnessFactor" : 0.9
            }
        }
    ],
    "meshes" : [
        {
            "name" : "Object_0",
            "primitives" : [
                {
                    "attributes" : {
                        "POSITION" : 0,
                        "NORMAL" : 1,
                        "TEXCOORD_0" : 2
                    },
                    "indices" : 3,
                    "material" : 0
                }
            ]
        }
    ],
    "textures" : [
        {
            "sampler" : 0,
            "source" : 0
        }
    ],
    "images" : [
        {
            "bufferView" : 4,
            "mimeType" : "image/png",
            "name" : "mat1_baseColor"
        }
    ],
    "accessors" : [
        {
            "bufferView" : 0,
            "componentType" : 5126,
            "count" : 960,
            "max" : [
                15.46821117401123,
                8.932511329650879,
                2.331123113632202
            ],
            "min" : [
                -15.46821117401123,
                -4.25402307510376,
                -27.53310775756836
            ],
            "type" : "VEC3"
        },
        {
            "bufferView" : 1,
            "componentType" : 5126,
            "count" : 960,
            "type" : "VEC3"
        },
        {
            "bufferView" : 2,
            "componentType" : 5126,
            "count" : 960,
            "type" : "VEC2"
        },
        {
            "bufferView" : 3,
            "componentType" : 5123,
            "count" : 2058,
            "type" : "SCALAR"
        }
    ],
    "bufferViews" : [
        {
            "buffer" : 0,
            "byteLength" : 11520,
            "byteOffset" : 0
        },
        {
            "buffer" : 0,
            "byteLength" : 11520,
            "byteOffset" : 11520
        },
        {
            "buffer" : 0,
            "byteLength" : 7680,
            "byteOffset" : 23040
        },
        {
            "buffer" : 0,
            "byteLength" : 4116,
            "byteOffset" : 30720
        },
        {
            "buffer" : 0,
            "byteLength" : 2334671,
            "byteOffset" : 34836
        }
    ],
    "samplers" : [
        {
            "magFilter" : 9729,
            "minFilter" : 9987
        }
    ],
    "buffers" : [
        {
            "byteLength" : 2369508,
            "uri" : "data:application/octet-stream;base64,"
        }
    ]
}
